<svg xmlns="http://www.w3.org/2000/svg" version="1.1" xmlns:xlink="http://www.w3.org/1999/xlink" viewBox="0 0 1422 800" style="overflow: hidden; display: block;" width="10" height="10"><defs></defs><g id="two-0" transform="matrix(1 0 0 1 0 0)" opacity="1"></g><path d="M 136.52421806786393 225.1139736770509 Q 136.52421806786393 225.1139736770509 138.90074810027082 237.99849919926368 141.2772781326777 250.8830247214765 140.7354606613591 260.18428002897053 140.1936431900405 269.4855353364645 138.66482135106742 279.00275940416753 137.13599951209437 288.51998347187055 136.35168754314145 294.98798896649896 135.5673755741885 301.4559944611273 135.4613538935917 301.91668760922846 135.35533221299488 302.37738075732955 134.97383192501445 303.37374308766795 134.59233163703402 304.37010541800635 133.98346520182145 305.246211591434 133.37459876660884 306.1223177648617 132.5737535299861 306.8272484494153 131.7729082933634 307.53217913396895 130.8266294181106 308.0249637251412 129.88035054285783 308.51774831631354 128.84363580166536 308.7697461505122 127.80692106047292 309.02174398471084 126.74002436280875 309.0183089359722 125.67312766514459 309.01487388723353 124.63805709720486 308.7562056007516 123.60298652926515 308.49753731426966 122.65990044109112 307.9986696030083 121.7168143529171 307.4998018917469 120.92052495226415 306.7897289705238 120.12423555161119 306.07965604930075 119.52102321585875 305.1996473896601 118.91781088010632 304.31963873001934 118.54273433855015 303.32084047660635 118.16765779699398 302.3220422231934 118.04251651585221 301.26250457742486 117.91737523471043 300.2029669316563 118.04944243112277 299.1442702712865 118.18150962753509 298.0855736109166 117.99346341352663 291.0007872546123 117.80541719951816 283.916000898308 118.57576841573919 275.92317225254266 119.34611963196024 267.9303436067773 122.5604880771238 254.6819318900694 125.77485652228735 241.43352017336153 127.62348302973237 232.14000513619135 129.47210953717737 222.84649009902114 132.72163847349606 210.19116721200538 135.9711674098147 197.53584432498963 137.2607476304021 189.68095126159932 138.5503278509895 181.82605819820904 139.7192386172565 174.89141863438618 140.8881493835235 167.9567790705633 140.98665506218563 167.09155683543912 141.08516074084775 166.22633460031494 141.4494280526339 165.38049363606453 141.81369536442006 164.53465267181411 142.3698063692062 163.800569460185 142.92591737399235 163.06648624855586 143.64155087405157 162.48682574029868 144.3571843741108 161.9071652320415 145.19074771679573 161.51561732313138 146.02431105948068 161.12406941422128 146.9273575041497 160.9433908875209 147.83040394881874 160.76271236082053 148.75044839367823 160.80340426079084 149.6704928385377 160.84409616076118 150.5540622572243 161.10379347226404 151.4376316759109 161.36349078376688 152.23337297229622 161.82709988685588 153.02911426868155 162.2907089899449 153.69077892123192 162.93128490176593 154.35244357378232 163.57186081358697 154.84157560180336 164.35217323204768 155.33070762982442 165.13248565050839 155.61887865686577 166.007182781185 155.9070496839071 166.88187991186163 155.97751119633745 167.80012431642177 156.0479727087678 168.71836872098194 155.89662948017406 169.62679199148903 155.74528625158032 170.53521526199611 160.09345142782365 176.00524165619305 164.441616604067 181.47526805038999 167.09417956577443 189.18701108479746 169.7467425274818 196.89875411920494 172.03750718351753 210.92944603408182 174.32827183955325 224.9601379489587 176.7283107483775 233.81079117173 179.12834965720174 242.66144439450127 182.42846479855777 250.6098742032043 185.7285799399138 258.55830401190735 186.72524518996278 260.4576644635746 187.72191044001175 262.3570249152419 187.90022580728976 263.3521938974403 188.07854117456776 264.3473628796387 188.0135077343361 265.3562872202059 187.94847429410441 266.36521156077305 187.6438717929649 267.32925252963116 187.3392692918254 268.2932934984892 186.812801241456 269.1564209892329 186.28633319108656 270.0195484799766 185.56859793931068 270.73159748229 184.85086268753483 271.44364648460345 183.98357504090836 271.96323267701666 183.1162873942819 272.4828188694298 182.1498541515761 272.7797438780271 181.18342090887035 273.07666888662436 180.17401121555898 273.13367541595505 179.1646015222476 273.19068194528575 178.1708823171328 273.0044567731867 177.177163112018 272.8182316010877 176.25688940199075 272.3995981433111 175.3366156919635 271.98096468553456 174.54327382828944 271.3542539383158 173.7499319646154 270.7275431910971 173.1296310136863 269.9291796125104 172.5093300627572 269.1308160339237 172.09812194498573 268.2072005526675 171.6869138272143 267.28358507141127 172.94282450063432 261.04503621228764 174.19873517405432 254.80648735316402 179.7528997208973 244.60461731899545 185.30706426774023 234.40274728482686 190.27942298397008 224.88900498947157 195.25178170019993 215.37526269411626 204.45799717891882 200.63553250121473 213.6642126576377 185.8958023083132 220.97741262051147 174.37432380865073 228.29061258338527 162.85284530898826 232.04641598086215 155.63403836284135 235.802219378339 148.41523141669444 240.65983575038086 139.96436781879964 245.5174521224227 131.51350422090485 248.91356020096208 123.32330706630601 252.3096682795015 115.13310991170718 252.7571499124735 113.95297639800535 253.20463154544552 112.7728428843035 253.72305894239844 112.09819201741072 254.24148633935135 111.42354115051795 254.9063077831586 110.89256732257107 255.57112922696587 110.36159349462417 256.3437052640769 110.00515692945115 257.11628130118794 109.64872036427813 257.9517097760265 109.48753717179395 258.78713825086515 109.32635397930974 259.6368640212213 109.3697921342347 260.4865897915774 109.41323028915967 261.30122675575365 109.65876516388863 262.11586371992996 109.90430003861759 262.848065139293 110.33766113469488 263.58026655865604 110.77102223077218 264.18747685231006 111.36702258093241 264.7946871459641 111.96302293109265 265.2416152231123 112.68702296698156 265.68854330026056 113.41102300287046 265.94921368006027 114.22094380838519 266.20988405986 115.03086461389991 266.2691465675897 115.87963355376996 266.3284090753194 116.72840249364 266.1828193712455 117.5666890772009 266.0372296671715 118.4049756607618 265.69524943173514 119.18405863239026 265.35326919629875 119.96314160401872 265.8169085519862 134.60678533125017 266.2805479076737 149.25042905848161 264.4672906041088 163.82915583011646 262.654033300544 178.40788260175134 258.7527991823199 200.33770325342994 254.8515650640959 222.2675239051085 252.39005416105257 235.3390313613346 249.92854325800926 248.4105388175607 246.7694834384672 266.74584239182536 243.61042361892515 285.08114596609005 241.57788411464617 296.7158300246483 239.5453446103672 308.35051408320663 238.4797909322265 316.5027620212223 237.4142372540858 324.65500995923793 235.44012196956749 331.8183193348775 233.46600668504914 338.98162871051716 233.47100363940268 338.9814542192893 233.47600059375623 338.9812797280614 233.48099754810977 338.9811052368335 233.4859945024633 338.98093074560563 234.24163624245978 331.6554502239255 234.9972779824562 324.32996970224536 236.12644549862378 316.1607918873674 237.25561301479135 307.9916140724894 238.87937101705342 296.3004257540646 240.5031290193155 284.6092374356398 242.9316174315015 266.1531637660379 245.3601058436875 247.69709009643603 246.99927372031914 234.51066301631252 248.63844159695077 221.324235936189 251.37035870606388 199.5636889130123 254.10227581517702 177.80314188983562 254.3266619023941 163.46078672574714 254.5510479896112 149.1184315616587 253.78531322838052 137.43078429539943 253.0195784671498 125.74313702914016 253.111925279202 119.25829369063757 253.20427209125424 112.773450352135 253.7226320205284 112.09874764587587 254.2409919498026 111.42404493961673 254.90576029290307 110.89300463218045 255.57052863600353 110.36196432474416 256.34306902559524 110.00545050374976 257.11560941518695 109.64893668275533 257.95102176752914 109.48766994822971 258.7864341198714 109.32640321370408 259.63616422979436 109.36975639583497 260.48589433971733 109.41310957796584 261.30055585330786 109.65856298777084 262.11521736689843 109.90401639757584 262.84746211871 110.33730427134452 263.57970687052153 110.7705921451132 264.18697676117444 111.36653177126416 264.79424665182734 111.96247139741513 265.2412471267444 112.6864267368764 265.68824760166143 113.41038207633767 265.9489989722382 114.22027681076486 266.209750342815 115.03017154519203 266.26909772714225 115.87893455456748 266.32844511146953 116.72769756394293 266.18293923678175 117.56599870228277 266.0374333620939 118.40429984062261 265.6955310366645 119.18341700637914 265.35362871123505 119.96253417213568 264.53448424027033 120.92272022582401 263.7153397693057 121.88290627951233 258.62641999171046 129.07052289968962 253.5375002141153 136.25813951986692 248.45831274396227 144.60209557048594 243.37912527380925 152.94605162110497 238.83173737267043 159.6126978604547 234.28434947153158 166.2793440998044 228.0916381814585 178.38302662397825 221.89892689138546 190.4867091481521 214.40403063724 205.7038236120943 206.90913438309454 220.92093807603652 202.73976557013526 230.63037070136824 198.57039675717598 240.33980332669992 193.146030394503 251.34801325837367 187.72166403183 262.3562231900474 187.90007891511448 263.3513743357332 188.07849379839894 264.3465254814191 188.01356125092633 265.3554563202857 187.94862870345372 266.3643871591523 187.64412260793395 267.32845858344024 187.33961651241418 268.29253000772815 186.81323477742603 269.15571014096116 186.28685304243788 270.0188902741942 185.5691889991508 270.7310110464724 184.8515249558637 271.4431318187506 183.98428927219285 271.9628047373304 183.117053588522 272.48247765591015 182.1506500431492 272.7794993063469 181.18424649777637 273.07652095678367 180.17484251016498 273.1336284267985 179.1654385225536 273.1907358968133 178.1717006998902 273.0046100975658 177.1779628772268 272.8184842983182 176.2576473084552 272.39994287000565 175.33733173968363 271.9814014416931 174.54392720890166 271.35477003179415 173.75052267811972 270.7281386218952 173.1301418939344 269.9298370773953 172.50976110974906 269.13153553289544 172.09846063248568 268.207961177069 171.68716015522233 267.28438682124255 170.65322662206273 262.73065044036395 169.6192930889031 258.17691405948534 168.38555373754866 252.00593522706316 167.15181438619425 245.83495639464095 164.82546542162873 236.8486537317814 162.4991164570632 227.86235106892187 158.19222555708762 215.00123799756034 153.88533465711205 202.1401249261988 151.56824808560356 194.82506700780723 149.25116151409503 187.51000908941566 145.16805344210562 176.86853835877375 141.0849453701162 166.22706762813183 141.44912809598475 165.3811902413795 141.81331082185326 164.53531285462716 142.36934841553781 163.80117403556807 142.92538600922236 163.067035216509 143.6409615396527 162.48730314780022 144.35653707008302 161.90757107909147 145.19006125380932 161.51593981580498 146.02358543753562 161.12430855251847 146.92661380983677 160.94353972207716 147.82964218213792 160.76277089163585 148.74969069158715 160.8033707869584 149.6697392010364 160.84397068228094 150.55333458503628 161.10357963554355 151.43692996903613 161.3631885888062 152.232717622353 161.82671811544765 153.02850527566983 162.2902476420891 153.69023398250297 162.9307573842421 154.35196268933612 163.57126712639513 154.84117274615323 164.35153062775157 155.33038280297032 165.13179412910802 155.6186412982837 166.0064624383085 155.90689979359712 166.88113074750896 155.97745313011546 167.79936810132665 156.0480064666338 168.71760545514434 155.8967540811237 169.62604385543216 155.7455016956136 170.53448225571998 155.36025383290212 171.31544126178764 154.97500597019064 172.0964002678553 152.3274528114341 178.14893450997494 149.6798996526776 184.2014687520946 147.68328977866386 191.75983671764362 145.68667990465013 199.31820468319262 144.21948093426715 212.37511179792057 142.7522819638842 225.43201891264852 141.0414869735409 234.42086437044742 139.33069198319762 243.4097098282463 138.69320810905924 256.5933615808591 138.05572423492086 269.77701333347187 137.30163469122644 277.2369932572363 136.54754514753202 284.6969731810007 135.95154593250712 293.5367476128728 135.3555467174822 302.37652204474483 134.97414606764215 303.37292252013015 134.5927454178021 304.3693229955155 133.98396659625104 305.24549005120605 133.37518777469998 306.1216571068966 132.5744130351498 306.8266678724491 131.77363829559965 307.5316786380016 130.8274087035373 308.02455785459733 129.88117911147492 308.5174370711931 128.84448957524944 308.7695385756057 127.80780003902393 309.0216400800183 126.74090300318937 309.0183117209664 125.67400596735482 309.0149833619145 124.63890953776185 308.75641858378253 123.60381310816888 308.4978538056506 122.66067713793923 307.99908040549224 121.71754116770958 307.50030700533387 120.92118076374607 306.7903137166011 120.12482035978256 306.08032042786823 119.52152002618037 305.20037209386106 118.91821969257818 304.3204237598539 118.54304327307221 303.321663019089 118.16786685356624 302.3229022783241 118.04261961928577 301.26337715198133 117.91737238500531 300.2038520256386 118.04933371109144 299.1451421638426 118.18129503717758 298.08643230204655 120.70542879009705 291.98989629652533 123.22956254301653 285.8933602910041 125.19667285512266 276.89163322426384 127.16378316722879 267.88990615752357 128.81667895465347 259.24892831262804 130.46957474207815 250.6079504677325 133.48689952851336 237.8607121502236 136.50422431494857 225.11347383271473 136.51422119140625 225.1137237548828 Z" fill="hsl(180, 69%, 30%)"></path><path d="M 286.9631613147319 266.33757868619386 Q 286.9631613147319 266.33757868619386 295.0384233681334 265.2650027973575 303.11368542153485 264.1924269085212 311.06528906915327 263.03584097499527 319.0168927167717 261.87925504146926 325.19543713892205 259.5883558892347 331.3739815610724 257.2974567370002 340.39650482432324 248.0208700117979 349.4190280875741 238.74428328659565 351.6920061604716 232.5091592050402 353.964984233369 226.27403512348477 342.84147517918325 222.97935083376615 331.7179661249975 219.68466654404753 325.1416617126215 220.1603202251278 318.56535730024547 220.63597390620808 310.4322374790727 224.01849305026184 302.29911765789984 227.40101219431563 295.8197981543585 236.0428349432865 289.3404786508172 244.68465769225733 291.23012554064263 251.65835776299855 293.11977243046806 258.6320578337398 304.35556794433484 267.73291130901566 315.5913634582016 276.8337647842915 322.4416445078065 279.8106333620343 329.2919255574114 282.7875019397772 336.2425404495163 284.61488059705164 343.1931553416212 286.442259254326 353.30697169876555 287.93089021262546 363.4207880559099 289.4195211709249 365.4970048966089 289.43628768098847 367.57322173730796 289.4530541910521 367.5745636873504 289.45787074273187 367.5759056373929 289.4626872944116 367.5772475874354 289.4675038460913 367.57858953747785 289.47232039777106 365.6400490580872 290.60764726272794 363.7015085786965 291.7429741276849 352.6960528707327 293.98539300559 341.6905971627688 296.2278118834952 333.2378149524896 295.6759185232479 324.7850327422104 295.1240251630007 316.5005595659619 292.50260664069265 308.2160863897135 289.88118811838456 295.8606051582343 284.1504039655016 283.50512392675506 278.41961981261863 278.9573919043803 272.23330144022 274.4096598820055 266.04698306782126 272.19738930469214 257.968307525413 269.98511872737873 249.88963198300476 271.647303038417 243.12451511445778 273.30948734945525 236.3593982459108 278.331152125373 227.9962710744337 283.35281690129074 219.63314390295662 289.2979078823438 215.8928528417852 295.2429988633968 212.15256178061384 306.10299796196136 206.80676705338828 316.962997060526 201.46097232616276 326.4291099822748 201.000176965561 335.8952229040235 200.53938160495923 346.0763267480013 203.06719726231785 356.2574305919791 205.59501291967644 363.6008008247215 212.60616119900322 370.9441710574639 219.61730947833004 370.9583351826827 227.66550805092328 370.97249930790144 235.71370662351652 367.4025110582347 242.99205948076343 363.83252280856806 250.27041233801037 356.1134869938725 259.41985243220677 348.394451179177 268.56929252640316 341.82357872165375 271.0686140669389 335.2527062641305 273.5679356074746 327.2472782069375 274.5627160421274 319.2418501497445 275.5574964767802 310.4046562471615 274.59313887958854 301.5674623445785 273.6287812823968 294.26366784890763 269.9930439250546 286.95987335323684 266.3573065677124 286.9615173339844 266.3474426269531 Z" fill="hsl(180, 69%, 30%)"></path><path d="M 406.21484154173146 102.52575281568421 Q 406.21484154173146 102.52575281568421 408.99184587759765 109.66107551150826 411.76885021346385 116.7963982073323 411.92380346934976 129.17633599312722 412.0787567252356 141.55627377892213 411.42702327062307 152.89690477880544 410.77528981601057 164.23753577868877 408.0110063207144 179.37505871699716 405.24672282541826 194.51258165530555 402.1819310650259 207.2937195351679 399.1171393046335 220.0748574150302 396.2096238733579 236.89582747119772 393.3021084420823 253.71679752736526 391.6993382495506 264.4086042460058 390.0965680570189 275.1004109646463 388.8601535355093 282.4627689884668 387.62373901399974 289.8251270122872 387.6187680803432 289.8245886642752 387.61379714668664 289.8240503162632 387.60882621303006 289.8235119682512 387.60385527937353 289.82297362023917 387.9737222181445 282.3534415015016 388.3435891569154 274.8839093827641 389.393089693433 264.1009997446207 390.4425902299506 253.31809010647726 392.2679388015391 236.19557113611268 394.0932873731276 219.07305216574812 396.13363675803134 206.26620080062224 398.17398614293506 193.4593494354964 399.88305829224646 178.544844816089 401.5921304415578 163.63034019668163 402.41942550562203 152.50833178428104 403.2467205696863 141.38632337188048 403.8662362035019 129.56026619402945 404.4857518373174 117.73420901617844 405.34038068490236 110.1312743038604 406.1950095324873 102.52833959154235 406.2049255371094 102.52704620361328 Z" fill="hsl(180, 69%, 30%)"></path><path d="M 421.81621753969085 225.11021252011568 Q 421.81621753969085 225.11021252011568 428.6132040686582 237.17965650285498 435.4101905976256 249.24910048559425 438.85822689991005 258.84669542101864 442.30626320219443 268.44429035644305 445.69488621841015 279.2684339249385 449.08350923462586 290.09257749343396 453.14858410046116 297.197570705045 457.21365896629646 304.30256391665597 457.9107385831336 305.2152489970689 458.6078181999708 306.12793407748177 458.91168477863187 306.9381735531638 459.215551357293 307.74841302884573 459.3166785161876 308.6078292279684 459.41780567508215 309.46724542709114 459.3103158989838 310.32588903978206 459.2028261228854 311.184532652473 458.8929667226314 311.9924992716194 458.5831073223773 312.80046589076574 458.08888734086895 313.51079645850064 457.59466735936064 314.2211270262355 456.94481088514414 314.79253709658735 456.29495441092763 315.36394716693917 455.5272311328178 315.7632263597716 454.759507854708 316.16250555260405 453.9185378856999 316.3664477424696 453.0775679166918 316.5703899323351 452.212228470897 316.56714198957656 451.3468890251022 316.563894046818 450.5074736717681 316.3536447420211 449.66805831843396 316.1433954372242 448.90335391733606 315.7383644698623 448.1386495162382 315.33333350250035 447.4931007230978 314.7570612914268 446.84755192995743 314.18078908035324 446.3586780709629 313.46676859355165 445.86980421196836 312.75274810675006 451.8266693796347 300.33607987386415 457.7835345473011 287.9194116409783 464.8038511412856 277.3659934560266 471.82416773527007 266.81257527107493 482.99933832203277 244.94952874937076 494.1745089087955 223.08648222766658 502.04566245431005 208.3594311927274 509.9168159998246 193.63238015778825 520.6738560778157 175.98728172774733 531.4308961558067 158.3421832977064 537.7141497148066 148.69068889101288 543.9974032738063 139.03919448431932 547.1043397008273 134.0549538210627 550.2112761278481 129.07071315780607 550.2156519568773 129.0731322734104 550.2200277859066 129.07555138901472 550.2244036149359 129.07797050461903 550.2287794439651 129.08038962022337 547.6487993333981 134.38295560127247 545.0688192228312 139.68552158232157 539.4788657000527 149.7150313382695 533.888912177274 159.74454109421742 524.2477768721287 177.85343153792968 514.6066415669834 195.96232198164194 507.6525990133903 211.08328047645517 500.69855645979715 226.2042389712684 490.56062202476215 248.94003359091636 480.42268758972716 271.6758282105643 474.9883101957272 283.134583058114 469.5539328017272 294.5933379056637 464.0807098486539 300.3603175577864 458.6074868955806 306.1272972099091 458.9114344966698 306.93750629488204 459.21538209775906 307.74771537985504 459.31659519776775 308.60712146196477 459.41780829777645 309.46652754407455 459.3104043865767 310.3251819014498 459.2030004753769 311.1838362588251 458.8932218733339 311.99183385987163 458.5834432712909 312.79983146091814 458.08929432531033 313.51021144709944 457.5951453793298 314.2205914332807 456.9453460493695 314.7920664864228 456.29554671940923 315.36354153956495 455.52786337305724 315.76289750272866 454.76018002670526 316.1622534658924 453.919230456121 316.36627975173496 453.0782808855367 316.57030603757755 452.2129411192743 316.56714462877966 451.3476013530119 316.56398321998176 450.5081649789444 316.35381785777133 449.66872860487695 316.1436524955609 448.9039837045059 315.73869800066416 448.13923880413483 315.33374350576736 447.4936323870012 314.75753585245434 446.8480259698676 314.1813281991413 446.3590807112688 313.4673566032957 445.87013545267007 312.75338500745 445.52306193379377 311.658645759632 445.1759884149174 310.5639065118141 442.5111854853408 301.8317804557214 439.84638255576414 293.09965439962866 436.1962823254055 282.2969922766435 432.54618209504685 271.4943301536583 429.9867625333786 261.8681024286365 427.42734297171035 252.24187470361474 424.6124169640566 238.67955484663236 421.7974909564029 225.11723498964994 421.8068542480469 225.1137237548828 Z" fill="hsl(180, 69%, 30%)"></path><path d="M 535.4881448257208 229.57112349594064 Q 535.4881448257208 229.57112349594064 538.1540180076097 240.07329433153768 540.8198911894984 250.57546516713472 541.4175651725516 260.3264659483656 542.0152391556048 270.0774667295965 541.1585331130829 280.9328639175011 540.3018270705609 291.7882611054057 538.9077076102841 300.2342791898684 537.5135881500073 308.68029727433117 536.4093778170802 315.77453933253616 535.305167484153 322.8687813907412 533.9892402623811 322.82075736929653 532.6733130406094 322.7727333478519 532.6780997615625 322.77128859786774 532.6828864825156 322.7698438478835 532.6876732034688 322.7683990978993 532.6924599244219 322.76695434791515 532.7145336523006 322.9425465160542 532.7366073801794 323.11813868419335 531.584937252687 315.69381050504455 530.4332671251946 308.2694823258957 530.018811050762 299.83169581317736 529.6043549763294 291.393909300459 529.5450488237534 280.6156944967197 529.4857426711774 269.8374796929804 530.4518786827341 260.34864298985156 531.4180146942907 250.8598062867227 533.4430843483474 240.2157677869926 535.4681540024042 229.57172928726249 535.4781494140625 229.57142639160156 Z" fill="hsl(180, 69%, 30%)"></path><path d="M 538.8313816800148 191.68176669033252 Q 538.8313816800148 191.68176669033252 541.6923497361516 196.09163522985983 544.5533177922885 200.5015037693871 544.9178280078636 202.63060918120493 545.2823382234388 204.75971459302272 545.1073203862829 205.63386006541612 544.932302549127 206.50800553780954 544.5531675012239 207.31486250510923 544.1740324533207 208.12171947240893 543.6128155414679 208.81439336976544 543.0515986296151 209.50706726712195 542.3409178070983 210.0452998550758 541.6302369845815 210.58353244302964 540.8113970541966 210.93604161828017 539.9925571238117 211.2885507935307 539.1131491007857 211.4348487062498 538.2337410777595 211.58114661896886 537.3448761977094 211.5127304275955 536.4560113176592 211.4443142362221 535.6093504491766 211.16516029301343 534.7626895806941 210.88600634980475 534.0074406932355 210.41233909505604 533.2521918057769 209.93867184030734 532.6322500001666 209.29802083711974 532.0123081945562 208.65736983393214 531.5637045176642 207.8869697487118 531.1151008407721 207.11656966349145 530.8639081593767 206.26119618538843 530.6127154779814 205.40582270728544 530.5735331225277 204.51519018303668 530.534350767074 203.62455765878792 535.4027294097334 199.57985287369826 540.2711080523927 195.5351480886086 545.3848918648243 191.72570994090688 550.498675677256 187.91627179320517 547.8706481042825 190.65250027704838 545.2426205313092 193.3887287608916 545.2394054173885 193.38489952565766 545.2361903034678 193.38107029042368 545.232975189547 193.3772410551897 545.2297600756264 193.37341181995575 551.2889794198454 188.92911791153114 557.3481987640645 184.48482400310655 557.4553905225805 191.34207236629055 557.5625822810964 198.19932072947455 551.4224885943208 201.4791489587259 545.2823949075454 204.7589771879772 545.1074644858116 205.63314015778354 544.9325340640779 206.50730312758992 544.5534797037669 207.31419800436007 544.174425343456 208.1210928811302 543.613277701799 208.81382289671444 543.052130060142 209.50655291229867 542.3415030644373 210.0448565656435 541.6308760687326 210.5831602189883 540.8120713933594 210.93575127646918 539.9932667179861 211.28834233395006 539.1138733291483 211.4347281867398 538.2344799403105 211.58111403952955 537.3456082230855 211.51278673498612 536.4567365058606 211.4444594304427 535.6100477262171 211.16539015471648 534.7633589465735 210.8863208789903 534.0080626961658 210.41272915149852 533.252766445758 209.93913742400676 532.6327605781472 209.29854841820287 532.0127547105365 208.657959412399 531.564073995879 207.88760419139828 531.1153932812215 207.11724897039755 530.8641150637344 206.26190061583952 530.6128368462473 205.40655226128146 530.5735654277373 204.5159236597214 530.5342940092272 203.62529505816136 531.1711308086647 201.57321842881095 531.8079676081022 199.52114179946057 535.3097040968562 195.60068731042338 538.8114405856102 191.68023282138623 538.8214111328125 191.68099975585938 Z" fill="hsl(180, 69%, 30%)"></path><path d="M 578.9507348632812 239.6012420654297 Q 578.9507348632812 239.6012420654297 581.5229112108168 253.37831172943115 584.0950875583525 267.1553813934326 584.7638467545285 274.6126272726059 585.4326059507043 282.0698731517792 586.3378611052669 287.9249731249066 587.2431162598297 293.7800730980341 587.1224825606164 294.7735490618899 587.0018488614031 295.76702502574574 586.6469590000295 296.70276011990404 586.2920691386558 297.6384952140623 585.7235493305394 298.46210447088515 585.155029522423 299.285713727708 584.4059221655232 299.9493289384919 583.6568148086233 300.61294414927573 582.7706580577199 301.07799596678996 581.8845013068163 301.5430477843042 580.9127986339075 301.7825073750645 579.9410959609987 302.02196696582484 578.9403227710894 302.0219169271653 577.9395495811801 302.02186688850577 576.9678708590889 301.7823101286756 575.9961921369977 301.54275336884547 575.1100818957067 301.07761293798154 574.2239716544157 300.6124725071176 573.4749306627823 299.94878238891624 572.7258896711489 299.2850922707149 572.1574522268006 298.46142616602936 571.5890147824523 297.63776006134384 571.2342184963625 296.70198948287816 570.8794222102725 295.76621890441254 570.7588878592587 294.7727308821542 570.6383535082448 293.7792428598958 571.2761043542469 284.45761095613045 571.9138552002489 275.13597905236503 572.4078159792778 266.5633015535667 572.9017767583067 257.9906240547684 574.2458231073703 244.7299927017262 575.5898694564338 231.469361348684 575.5280602789758 221.40423286663494 575.4662511015176 211.33910438458588 574.8556840683423 202.93439703081867 574.2451170351668 194.52968967705146 573.4653536654075 188.56611310889147 572.6855902956484 182.60253654073148 572.757705297636 181.63269000856633 572.8298202996236 180.66284347640118 573.131946348628 179.73843949546134 573.4340723976325 178.8140355145215 573.9486499134903 177.98880048761214 574.463227429348 177.16356546070276 575.1603491426602 176.48546208636134 575.8574708559722 175.8073587120199 576.6966200200069 175.3157983902237 577.5357691840416 174.82423806842752 578.4681744099578 174.5477903081752 579.4005796358741 174.27134254792287 580.3720494881328 174.22607450602914 581.3435193403915 174.1808064641354 582.297591945535 174.36934912132205 583.2516645506787 174.55789177850866 584.1328891640693 174.96928702668134 585.0141137774599 175.380682274854 585.7712735831631 175.99101980285957 586.5284333888662 176.60135733086514 587.1175222233996 177.37516429289937 587.706611057933 178.1489712549336 588.093391050555 179.04127395400587 588.4801710431772 179.93357665307815 588.6421625225441 180.89251441439373 588.8041540019111 181.8514521757093 593.2346072012674 189.82313731363843 597.6650604006237 197.79482245156754 600.0124799577598 211.56571998102885 602.3598995148958 225.33661751049013 604.8360937281498 235.41790617999504 607.3122879414038 245.49919484949996 610.7664673950925 256.44128099215413 614.2206468487811 267.3833671348083 618.0736163613633 274.2090165060414 621.9265858739456 281.03466587727445 627.3780956039786 287.32272388520016 632.8296053340117 293.6107818931259 632.7261736174444 280.2455732039351 632.622741900877 266.8803645147444 637.687964931278 249.6454943549414 642.753187961679 232.41062419513844 646.2287480990062 217.71090998469924 649.7043082363334 203.01119577426007 654.0037200914308 180.75308470241052 658.3031319465282 158.49497363056096 661.07020442597 143.32614316884423 663.8372769054118 128.15731270712752 665.3408056662123 114.41210435134306 666.8443344270128 100.66689599555859 667.6940804695678 93.17146236261146 668.5438265121228 85.67602872966434 669.2022128536819 81.56380401629156 669.8605991952409 77.45157930291876 669.8655855997049 77.45194777343531 669.8705720041688 77.45231624395184 669.8755584086327 77.45268471446838 669.8805448130968 77.45305318498492 669.9261647163623 81.6332186795656 669.9717846196278 85.81338417414626 669.3797272779627 93.3061998255956 668.7876699362977 100.79901547704493 668.4064105756795 114.78152453574685 668.0251512150613 128.7640335944488 666.3574281146945 144.15862811965548 664.6897050143276 159.5532226448622 661.5698497537905 182.06954116152846 658.4499944932536 204.58585967819474 656.5304744343273 219.85019863343268 654.610954375401 235.1145375886706 651.5051075046906 253.705058889181 648.3992606339801 272.2955801896914 645.668273419323 280.4833682563668 642.937286204666 288.6711563230423 636.2703808427149 297.91862154937695 629.6034754807638 307.1660867757116 624.1240824747471 302.1801799803841 618.6446894687303 297.1942731850565 615.3841366907607 291.58632695616643 612.1235839127909 285.9783807272764 608.7001998470532 278.32550976677635 605.2768157813155 270.6726388062764 600.6566361720456 259.6096371853858 596.0364565627758 248.54663556449518 593.0839507692065 238.51398482138558 590.131444975637 228.48133407827598 585.7364622016904 216.033827772392 581.3414794277438 203.58632146650802 577.0135536791015 193.094831965833 572.6856279304593 182.603342465158 572.7576459474333 181.6334887263419 572.8296639644072 180.6636349875258 573.1316975715031 179.73920079860312 573.433731178599 178.81476660968045 573.9482261683813 177.98948012914576 574.4627211581636 177.16419364861105 575.1597750576528 176.48602056548893 575.856828957142 175.8078474823668 576.6959289609489 175.31620324811217 577.5350289647557 174.8245590138575 578.4674065412339 174.548018014465 579.3997841177122 174.27147701507246 580.3712494383094 174.22611182642 581.3427147589065 174.18074663776756 582.2968062135454 174.36919388675113 583.2508976681844 174.55764113573468 584.1321634166936 174.96894825938918 585.0134291652028 175.38025538304368 585.7706500008728 175.99051719201714 586.527870836543 176.60077900099057 587.1170370488269 177.3745270502724 587.7062032611109 178.14827509955424 588.0930724820689 179.0405391161658 588.4799417030268 179.93280313277737 588.6420290753599 180.89172469015034 588.8041164476929 181.85064624752334 587.9720755261749 187.86270503779295 587.140034604657 193.87476382806256 587.3919149066473 202.45087891088903 587.6437952086378 211.0269939937155 588.103500871965 221.3160024100969 588.5632065352921 231.6050108264783 589.6265736207162 245.12795386364238 590.6899407061402 258.65089690080646 590.5234796883703 267.8658648536884 590.3570186706006 277.0808328065703 588.8000674444592 285.4300378332331 587.2431162183177 293.7792428598958 587.1225818673038 294.7727308821542 587.00204751629 295.76621890441254 586.6472512302 296.70198948287816 586.2924549441102 297.63776006134384 585.7240174997619 298.46142616602936 585.1555800554136 299.2850922707149 584.4065390637802 299.94878238891624 583.6574980721468 300.6124725071176 582.7713878308558 301.07761293798154 581.8852775895648 301.54275336884547 580.9135988674736 301.7823101286756 579.9419201453824 302.02186688850577 578.9411469554731 302.0219169271653 577.9403737655638 302.02196696582484 576.968671092655 301.7825073750645 575.9969684197462 301.5430477843042 575.1108116688426 301.07799596678996 574.2246549179392 300.61294414927573 573.4755475610393 299.9493289384919 572.7264402041395 299.285713727708 572.1579203960231 298.46210447088515 571.5894005879067 297.6384952140623 571.234510726533 296.70276011990404 570.8796208651594 295.76702502574574 570.7589871659461 294.7735490618899 570.6383534667328 293.7800730980341 571.5436086212956 287.9249731249066 572.4488637758582 282.0698731517792 573.117622972034 274.6126272726059 573.78638216821 267.1553813934326 576.3585585157457 253.37831172943115 578.9307348632813 239.6012420654297 578.9407348632812 239.6012420654297 Z" fill="hsl(180, 69%, 30%)"></path><path d="M 307.0248625927879 324.30677011671787 Q 307.0248625927879 324.30677011671787 301.52534507930056 329.1384886573951 296.0258275658133 333.97020719807233 290.21933835491643 338.7741032150701 284.41284914401956 343.57799923206795 283.55429364185744 343.89242348573885 282.6957381396953 344.2068477394098 281.78688328309585 344.30666262419595 280.87802842649637 344.40647750898216 279.9716969024274 344.28588177909 279.0653653783585 344.16528604919785 278.2142332175828 343.8312887341149 277.36310105680707 343.4972914190319 276.61663610049914 342.96930445840354 275.87017114419126 342.4413174977752 275.27175797068423 341.7500275185605 274.67334479717726 341.05873753934577 274.2577632082317 340.24432234761684 273.84218161928624 339.4299071558879 273.6335852363777 338.53970060085317 273.42498885346913 337.64949404581847 273.4355013081731 336.73523497428266 273.4460137628771 335.8209759027469 273.67502407083225 334.93580109490404 273.90403437878734 334.0506262870612 274.33823245013537 333.24598214433286 274.77243052148333 332.4413380016045 275.3865807439166 331.76399047937207 276.00073096635 331.0866429571396 276.75913890008513 330.57595952522024 277.5175468338203 330.0652760933009 284.14106656875356 332.969096086743 290.7645863036868 335.87291608018506 303.7194805263408 341.0831620989384 316.67437474899486 346.2934081176917 325.96030470255937 350.573687112925 335.24623465612393 354.8539661081583 342.51071306881215 358.2027011890865 349.7751914815003 361.5514362700146 358.2539054022945 370.7302083810696 366.73261932308867 379.90898049212456 371.81115763713535 388.8955460049143 376.889695951182 397.88211151770406 379.41142573763057 405.5951991564756 381.9331555240791 413.30828679524706 382.92449943197164 419.5796124766236 383.9158433398641 425.85093815800013 382.6076263848952 432.79697235412675 381.29940942992624 439.7430065502533 376.2191256762088 446.23074433053364 371.13884192249134 452.7184821108139 359.13247247275524 456.9750439487343 347.1261030230192 461.23160578665477 337.37679882397356 463.1734457700154 327.62749462492786 465.115285753376 311.9757440354026 463.6733187707256 296.32399344587736 462.2313517880752 284.2148282313409 459.1272619736654 272.1056630168044 456.0231721592556 263.53634792174086 451.6895110580108 254.96703282667733 447.35584995676606 249.87014347351874 441.8667271670415 244.77325412036018 436.3776043773169 245.36970478759469 429.0667613378672 245.96615545482916 421.7559182984175 253.28538101025327 415.99471200854987 260.6046065656774 410.2335057186823 275.18300767528785 407.7750281290595 289.7614087848984 405.3165505394367 289.7629606880697 405.32130360124427 289.7645125912411 405.3260566630519 289.7660644944125 405.3308097248595 289.7676163975838 405.335562786667 277.9832992482852 411.48467073405004 266.1989820989867 417.633778681433 261.2440483664446 421.571468938886 256.2891146339025 425.5091591963391 258.0136482044783 432.19794430304444 259.7381817750541 438.8867294097497 266.8965285825635 443.0318418390708 274.05487539007294 447.17695426839185 285.38222285817585 448.9454374843115 296.7095703262788 450.7139207002312 310.5707859437223 450.1825442548221 324.43200156116575 449.65116780941304 332.8614317565041 447.7046056015629 341.2908619518425 445.7580433937128 352.5888264833259 439.927525141281 363.88679101480926 434.09700688884925 365.3295516281212 425.7941011751627 366.77231224143304 417.49119546147625 365.4014205122952 411.2549557395614 364.0305287831573 405.0187160176466 359.94995764876535 397.7685901417812 355.86938651437333 390.5184642659158 348.8282641238137 384.10952143100815 341.7871417332541 377.7005785961005 335.1506230289242 374.52734329349073 328.51410432459426 371.354107990881 318.66155638506007 367.8273154868202 308.80900844552593 364.3005229827594 299.3153849116445 360.0487667698387 289.82176137776304 355.7970105569181 287.11764306173006 349.6873324781542 284.41352474569715 343.57765439939027 283.5550006902531 343.8921645070392 282.69647663480913 344.20667461468804 281.7876317642424 344.30658038446063 280.8787868936756 344.4064861542332 279.97244331456534 344.2859810580963 279.0660997354551 344.1654759619594 278.2149341792036 343.83156376176237 277.36376862295214 343.4976515615653 276.61725087168054 342.9697392500724 275.870733120409 342.4418269385794 275.27225082089626 341.75059680413847 274.6737685213835 341.05936666969745 274.2581054929969 340.24499304019946 273.84244246461026 339.4306194107014 273.63375706208933 338.5404337197559 273.4250716595684 337.6502480288105 273.4354926883128 336.73598791060056 273.44591371705724 335.8217277923906 273.67483550638667 334.93653008794286 273.90375729571616 334.05133238349515 274.337874900479 333.2466448249829 274.7719925052418 332.44195726647075 275.3860749898523 331.7645483326029 276.00015747446275 331.0871393987351 276.7585143360628 330.5763801285759 277.5168711976628 330.0656208584167 284.95079296460636 327.4715502139612 292.38471473154993 324.8774795695058 299.7010747510217 324.58284007795646 307.01743477049337 324.28820058640713 307.0211486816406 324.2974853515625 Z" fill="hsl(352, 100%, 76%)"></path><path d="M 395.07023918835495 369.9859915243035 Q 395.07023918835495 369.9859915243035 401.1126144687173 379.7018077869526 407.1549897490796 389.4176240496017 408.951843729235 401.36133648022553 410.7486977093904 413.3050489108494 410.949480834233 421.00470660589906 411.1502639590756 428.7043643009488 410.3955437418566 437.06121117435714 409.64082352463765 445.41805804776556 408.70852379716194 445.65458955868564 407.77622406968624 445.8911210696057 407.780900558 445.88935175983875 407.7855770463138 445.8875824500719 407.7902535346276 445.885813140305 407.79493002294134 445.8840438305381 407.2835890267877 445.7414723230477 406.77224803063405 445.5989008155572 404.98668679943967 437.60427670113665 403.2011255682453 429.60965258671604 401.69979762770015 422.3719962806823 400.198469687155 415.13433997464864 397.9903564546334 403.99345012560934 395.7822432221118 392.8525602765701 395.4166709621909 381.4221759776958 395.05109870227005 369.9917916788215 395.0606689453125 369.9888916015625 Z" fill="hsl(352, 100%, 76%)"></path><path d="M 398.4134480146211 326.52949894758206 Q 398.4134480146211 326.52949894758206 398.624996912817 328.6475398455113 398.83654581101285 330.7655807434405 398.8219568173357 331.009375811253 398.8073678236586 331.2531708790654 398.72090511122053 331.4356039229097 398.63444239878254 331.618036966754 398.50683184717207 331.77447597482455 398.37922129556154 331.93091498289516 398.2178796360339 332.05226771269264 398.0565379765062 332.1736204424901 397.8708423938938 332.25283386765693 397.68514681128136 332.3320472928238 397.48588994157046 332.36451752536755 397.2866330718595 332.39698775791123 397.0853957336798 332.38082762639067 396.8841583955 332.36466749487016 396.69263651240146 332.30081622688874 396.50111462930295 332.23696495890727 396.33043946213 332.12913359315996 396.1597642949571 332.02130222741266 396.0198554924449 331.8757579279432 395.87994668993275 331.73021362847373 395.77893575825703 331.5554154368057 395.67792482658126 331.38061724513756 395.62168252583683 331.18672444038344 395.56544022509246 330.99283163562933 395.5572353604412 330.79111327671154 395.54903049578996 330.58939491779375 395.58933993435096 330.3915748852103 395.6296493729119 330.19375485262674 397.22531078471843 328.50550438692375 398.82097219652496 326.81725392122075 398.8257961007981 326.8185691959312 398.8306200050712 326.8198844706416 398.8354439093443 326.82119974535203 398.8402678136174 326.8225150200625 398.82384429609425 329.03776350395447 398.8074207785711 331.25301198784643 398.72097630986974 331.43545367704985 398.6345318411684 331.6178953662532 398.50693693409676 331.7743471345967 398.3793420270251 331.9307989029402 398.2180125035771 332.05216776629686 398.0566829801291 332.1735366296535 397.87099531978765 332.25276862398255 397.68530765944615 332.33200061831155 397.4860540377548 332.36449077637985 397.2868004160634 332.3969809344481 397.0855614628766 332.38084092674217 396.8843225096899 332.36470091903624 396.6927942424222 332.3008688035623 396.5012659751545 332.2370366880884 396.3305800256984 332.12922239039693 396.1598940762423 332.0214080927055 396.0199707199998 331.87587778484396 395.8800473637572 331.73034747698244 395.7790189527674 331.5555593872815 395.67799054177755 331.38077129758057 395.6217288520339 331.186884118026 395.5654671622903 330.9929969384714 395.55724212584425 330.79127940104866 395.54901708939815 330.5895618636259 395.58930674575436 330.39173780108763 395.6295964021105 330.1939137385494 395.5188969691328 330.0852716916462 395.4081975361551 329.97662964474307 396.9013359424076 328.2499020185024 398.39447434866014 326.5231743922617 398.4039611816406 326.5263366699219 Z" fill="hsl(352, 100%, 76%)"></path><path d="M 391.7181196873567 334.3173569552772 Q 391.7181196873567 334.3173569552772 396.2391442367439 331.3856877230036 400.76016878613115 328.45401849073005 408.2877174308292 331.3123291952053 415.8152660755273 334.1706398996805 413.65900091360555 336.71842807277807 411.5027357516838 339.2662162458756 410.7118593469829 339.8915910137597 409.9209829422821 340.51696578164376 409.0034227756924 340.93489212504244 408.0858626091027 341.35281846844106 407.0949473206178 341.53900648863976 406.10403203213286 341.7251945088385 405.09735366487746 341.66882294935533 404.090675297622 341.61245138987215 403.1267420455995 341.3167965683929 402.16280879357697 341.02114174691354 401.29764450268516 340.5033871355538 400.43248021179335 339.985632524194 399.71636827126844 339.27587004529255 399.0002563307435 338.56610756639117 398.47481720021517 337.7055886485699 397.9493780696868 336.8450697307486 397.645150296109 335.88380777394264 397.34092252253123 334.9225458171366 397.27558783839834 333.9164094114401 397.2102531542655 332.91027300574353 397.38760881448917 331.9177388463287 397.56496447471284 330.9252046869139 397.9747025599878 330.00395890576 398.3844406452627 329.0827131246061 399.0027471588213 328.2862985697983 399.62105367237984 327.4898840149905 393.3790109620956 330.4547109742136 387.13696825181137 333.4195379334367 387.1379398815101 333.41463324835723 387.13891151120873 333.4097285632778 387.1398831409074 333.40482387819833 387.1408547706061 333.3999191931189 390.96045750687824 331.54918283186385 394.78006024315044 329.69844647060876 400.8508195882299 326.7577241755697 406.9215789333094 323.81700188053065 409.21245172109695 331.5413119917116 411.5033245088845 339.2656221028925 410.71251064561466 339.89107595529003 409.9216967823449 340.51652980768756 409.00417841297724 340.9345479050131 408.08666004360964 341.3525660023386 407.0957633788813 341.5388531131351 406.10486671415293 341.72514022393153 405.09818271477496 341.66886933256677 404.091498715397 341.612598441202 403.12753590271205 341.317040014526 402.1635730900271 341.02148158785 401.29835702800005 340.503813495508 400.433140965973 339.9861454031659 399.7169580527809 339.2764545390072 399.00077513958877 338.5667636748486 398.475249959796 337.70629730524286 397.9497247800032 336.84583093563714 397.645400881751 335.88459940641474 397.3410769834988 334.92336787719233 397.27564168605227 333.9172380099949 397.2102063886057 332.91110814279745 397.38746279452675 331.91855625277935 397.5647192004479 330.9260043627612 397.9743651590961 330.00471761240505 398.3840111177444 329.0834308620489 399.0022379867561 328.2869544805719 399.6204648557678 327.49047809909496 403.23397162657466 322.6009600727883 406.84747839738145 317.71144204648175 414.62585135066786 319.50078517711955 422.40422430395427 321.29012830775736 419.68792149356335 328.90714224367434 416.97161868317244 336.52415617959133 408.79425873147966 339.00318636762404 400.6168987797868 341.4822165556567 396.16679677277756 337.9097613431585 391.7166947657683 334.3373061306603 391.7174072265625 334.32733154296875 Z" fill="hsl(352, 100%, 76%)"></path><path d="M 458.5924305412412 355.5043560432724 Q 458.5924305412412 355.5043560432724 457.84728414874365 366.5253324459944 457.1021377562461 377.5463088487165 455.97735743110286 385.22280238533295 454.8525771059596 392.89929592194943 452.2951067220363 403.23785425538443 449.7376363381129 413.57641258881944 448.7478093123184 420.4162837214572 447.7579822865239 427.256154854095 447.4803711414482 433.88473484259885 447.2027599963725 440.5133148311027 447.0220619886784 448.8203102573319 446.84136398098434 457.12730568356113 461.17025503369433 455.25206772556055 475.4991460864043 453.3768297675599 483.1317526988161 453.81006914865475 490.7643593112279 454.2433085297495 502.65787333890887 456.24360350109123 514.5513873665898 458.24389847243293 523.5922715920918 459.48341300136804 532.6331558175939 460.72292753030314 532.6362218380752 460.7268771528684 532.6392878585565 460.7308267754337 532.6423538790377 460.734776397999 532.6454198995191 460.73872602056423 523.5980015637479 462.6168558859525 514.5505832279766 464.4949857513407 502.6541116583238 466.4922203837095 490.75764008867105 468.48945501607824 483.1230618540706 468.9154935995896 475.4884836194702 469.341532183101 462.7789256139482 471.25506907429974 450.0693676084263 473.16860596549844 440.44708116864547 470.7388987363614 430.8247947288646 468.3091915072244 428.65750167741066 461.9624139452852 426.49020862595677 455.61563638334604 427.9943667412159 447.2709230852369 429.498524856475 438.9262097871278 430.4951528788586 431.3385097982811 431.49178090124224 423.75080980943443 433.5001636812343 416.7413704743403 435.5085464612264 409.7319311392461 438.49795566686066 399.545854218298 441.487364872495 389.3597772973499 444.36755176002873 381.9135220966312 447.24773864756247 374.4672668959125 452.91053979534814 364.9828287173357 458.5733409431338 355.4983905387588 458.5828857421875 355.5013732910156 Z" fill="hsl(352, 100%, 76%)"></path><path d="M 545.516316112307 396.7295299081769 Q 545.516316112307 396.7295299081769 555.7769127396939 406.5497778967714 566.0375093670807 416.3700258853659 571.5886953178763 423.91305867323285 577.139881268672 431.45609146109973 582.316248460276 437.12356137058543 587.4926156518802 442.79103128007114 592.5253432774814 447.31742139513904 597.5580709030825 451.8438115102069 597.8521600999766 452.0885015115259 598.1462492968707 452.333191512845 598.8045029429995 453.3012559376374 599.4627565891284 454.2693203624297 599.8702011576879 455.36678813723756 600.2776457262476 456.4642559120455 600.4106005197696 457.62734215823275 600.5435553132914 458.7904284044201 600.3942929929294 459.951534494711 600.2450306725674 461.1126405850019 599.8222263713938 462.20428297887435 599.3994220702202 463.2959253727468 598.7276491940847 464.2546577629784 598.0558763179494 465.21339015321 597.1741783379761 465.9834909682346 596.2924803580028 466.75359178325914 595.2521016022142 467.2903027275245 594.2117228464256 467.8270136717898 593.0731301769899 468.09914107999793 591.9345375075544 468.37126848820606 590.7639059839161 468.362996302606 589.5932744602777 468.354724117006 588.4586412415922 468.06653311741366 587.3240080229068 467.77834211782124 586.2913180451549 467.2269819786734 585.2586280674029 466.6756218395255 584.3879013206122 465.893137638015 583.5171745738213 465.11065343650444 584.0788488819283 455.1936986690257 584.6405231900352 445.2767439015469 589.1903100568194 430.27222802716835 593.7400969236036 415.2677121527898 595.831981315655 406.4448378836071 597.9238657077065 397.6219636144244 600.8580353714174 387.0225533756927 603.7922050351282 376.4231431369611 606.0471117073375 368.38409095191474 608.302018379547 360.3450387668684 611.4878301042281 351.96720316955634 614.6736418289094 343.5893675722443 614.6785301396826 343.5904184850781 614.6834184504559 343.59146939791185 614.6883067612291 343.5925203107456 614.6931950720024 343.5935712235794 614.6993088777847 352.49618308382014 614.7054226835671 361.39879494406085 614.2759134814216 369.6722451734161 613.8464042792763 377.9456954027714 613.4797647337975 389.14338844378983 613.1131251883189 400.3410814848083 611.9616361194096 409.63499836558907 610.8101470505004 418.92891524636985 609.3203409821713 430.471764329021 607.830534913842 442.0146134116722 602.9880726322369 447.1735367673357 598.1456103506318 452.33246012299924 598.8039607999117 453.30045871758676 599.4623112491917 454.2684573121743 599.8698655624913 455.36588433703804 600.277419875791 456.4633113619018 600.4104909772725 457.6263843067943 600.5435620787541 458.7894572516868 600.3944158697473 459.9505782624042 600.2452696607403 461.1116992731216 599.82257452592 462.2033839419659 599.3998793910997 463.29506861081023 598.728202391562 464.2538681735357 598.0565253920242 465.2126677362611 597.1749044265408 465.982856717233 596.2932834610574 466.7530456982049 595.252958381565 467.2898606776621 594.2126333020726 467.8266756571193 593.0740678510708 468.09891692323356 591.9355024000689 468.37115818934774 590.7648700550651 468.36300306694125 589.5942377100614 468.3548479445348 588.4595756779493 468.06677040970504 587.3249136458371 467.7786928748753 586.2921685372348 467.2274360074818 585.2594234286324 466.6761791400883 584.3886184377752 465.8937820151648 583.517813446918 465.1113848902412 583.3148719895643 464.7870757516673 583.1119305322105 464.4627666130935 579.2565691594873 458.595779395847 575.4012077867642 452.72879217860043 570.3985755133797 446.01131715181066 565.3959432399951 439.2938421250209 560.5662515433908 431.2655786215365 555.7365598467866 423.2373151180521 550.6181174727085 409.9889695092345 545.4996750986305 396.74062390041684 545.5079956054688 396.7350769042969 Z" fill="hsl(352, 100%, 76%)"></path><path d="M 638.0151696737023 346.5866034782578 Q 638.0151696737023 346.5866034782578 639.8574150925281 357.3104263575 641.699660511354 368.03424923674214 641.6477566374845 375.9780960786828 641.5958527636149 383.92194292062356 639.9010847847128 395.6049323331503 638.2063168058106 407.28792174567707 636.7546736096613 416.2591953954162 635.3030304135119 425.23046904515536 635.0784106320089 432.7310279575232 634.8537908505057 440.23158686989115 634.8316597380333 440.8877519875389 634.8095286255609 441.5439171051866 634.53918073877 442.5885510622746 634.2688328519793 443.63318501936254 633.7563362096147 444.58276138583267 633.2438395672501 445.53233775230274 632.5189804982456 446.3316671051201 631.794121429241 447.13099645793744 630.8990287767444 447.73362173755993 630.0039361242478 448.3362470171825 628.990632715278 448.7071436140443 627.9773293063082 449.07804021090607 626.9047083826044 449.195651597371 625.8320874589006 449.313262983836 624.7624897989452 449.17075358059685 623.6928921389899 449.0282441773577 622.6884828090344 448.63389663762644 621.6840734790791 448.23954909789524 620.8032287965726 447.6162829192094 619.9223841140662 446.9930167405237 619.2162988133422 446.17705618247254 618.5102135126182 445.3610956244214 618.01992530453 444.3998643529767 617.529637096442 443.438633081532 617.2836415546799 442.3879979033532 617.0376460129179 441.33736272517444 617.0502404099271 440.2583866061813 617.0628348069364 439.1794104871882 617.0719398370933 427.1037758400088 617.0810448672502 415.0281411928294 619.6250543669922 401.2873924108915 622.1690638667343 387.54664362895363 623.9408192471151 376.235379590869 625.7125746274958 364.9241155527843 627.471407148154 353.14367617820733 629.2302396688123 341.3632368036304 629.6260279101332 333.69176326961417 630.0218161514541 326.020289735598 630.6303505851886 318.8451404250061 631.2388850189229 311.6699911144142 632.0591007571561 309.19796907453315 632.8793164953894 306.72594703465217 633.4221949221158 305.936747756754 633.9650733488421 305.1475484788558 634.6810493595326 304.5112067164704 635.397025370223 303.874864954085 636.244486405496 303.4283649203405 637.0919474407691 302.9818648865961 638.021639025437 302.7511571844326 638.951330610105 302.5204494822691 639.9092190255853 302.518942854176 640.8671074410659 302.51743622608285 641.797520167645 302.74521823735574 642.7279328942241 302.97300024862864 643.5767943005178 303.41683219807004 644.4256557068115 303.86066414751144 645.1436299280025 304.4947505013664 645.8616041491935 305.12883685522144 646.4069624898123 305.9163244848116 646.952320830431 306.7038121144017 647.2933670380971 307.59893220169533 647.6344132457632 308.4940522889889 647.7513256988632 309.4447804124553 647.8682381519633 310.3955085359218 647.7542218932299 311.3465883323555 647.6402056344965 312.29766812878916 647.3018872942444 313.19382279573506 646.9635689539922 314.089977462681 655.9078618009582 326.750638547869 664.8521546479243 339.41129963305696 667.8771854055785 348.463652764062 670.9022161632328 357.51600589506705 674.0877748817145 367.8823898905375 677.2733336001961 378.24877388600805 679.6827522320355 386.32230533758405 682.0921708638749 394.39583678916006 684.0576058913207 404.5388361848366 686.0230409187665 414.68183558051317 687.2825002362455 423.30078656571163 688.5419595537245 431.91973755091016 688.907372418184 434.9353330376805 689.2727852826433 437.95092852445083 689.2680970167274 437.9526663859822 689.2634087508115 437.95440424751354 689.2587204848957 437.9561421090449 689.2540322189798 437.95787997057624 687.4969945023574 435.24769550435747 685.739956785735 432.5375110381387 682.4025751253272 424.69582012331307 679.0651934649194 416.8541292084874 674.9481583982869 407.51500056563395 670.8311233316543 398.1758719227805 667.9753205105155 390.5641080671307 665.1195176893766 382.95234421148086 660.4395564909239 372.9974063558501 655.7595952924713 363.0424685002194 652.3395392625779 354.4349526473603 648.9194832326845 345.8274367945013 642.7727020023208 332.4366852190227 636.625920771957 319.0459336435442 634.7524345681238 312.8862924638182 632.8789483642907 306.7266512840923 633.4217478683752 305.93739772229753 633.9645473724595 305.1481441605028 634.6804597453938 304.51173080369813 635.3963721183283 303.87531744689346 636.2437884993608 303.42873266927813 637.0912048803932 302.9821478916628 638.0208733896425 302.75134722149454 638.9505418988917 302.5205465513263 639.9084301589199 302.5189441343993 640.8663184189481 302.51734171747233 641.7967539190763 302.74503068633385 642.7271894192045 302.9727196551953 643.5760952044487 303.416466716277 644.425000989693 303.86021377735875 645.1430386159294 304.49422833062135 645.8610762421658 305.1282428838839 646.4065133288206 305.91567597370266 646.9519504154753 306.7031090635214 647.2930861334448 307.59819504171867 647.6342218514143 308.4932810199159 647.7512293767419 309.4439974473835 647.8682369020695 310.394713874851 647.7543157518858 311.34580506815513 647.6403946017019 312.29689626145927 647.3021658786079 313.1930847557584 646.9639371555139 314.0892732500575 646.3668076640456 314.3283588428951 645.7696781725774 314.5674444357327 643.5867927998579 320.8941145487531 641.4039074271385 327.22078466177356 640.206003593638 334.75424123767505 639.0080997601375 342.2876978135765 638.5248415819972 354.2215869691138 638.0415834038567 366.15547612465105 637.5533772709796 377.4720801841927 637.0651711381025 388.7886842437344 636.668616511673 408.7024718642675 636.2720618852435 428.6162594848007 635.5408543237006 435.0796446217388 634.8096467621579 441.5430297586768 634.5394033401143 442.5876907453303 634.2691599180707 443.6323517319837 633.7567582359052 444.5819793433701 633.2443565537395 445.53160695475646 632.5195774212945 446.3310087894839 631.7947982888494 447.1304106242114 630.8997659033562 447.7331254100859 630.0047335178629 448.3358401959604 628.9914672036192 448.7068381213084 627.9782008893756 449.07783604665644 626.9055917321734 449.19555469462557 625.8329825749713 449.3132733425947 624.7633706694237 449.1708708998339 623.693758763876 449.02846845707313 622.6893100041887 448.63422136024644 621.6848612445015 448.23997426341975 620.8039542397814 447.6167961723184 619.9230472350614 446.99361808121705 619.2168803418122 446.17772813577574 618.510713448563 445.36183819033437 618.0203291197994 444.4006559525165 617.5299447910357 443.43947371469864 617.283844186986 442.3888631413272 617.0377435829363 441.33825256795575 617.0502300822709 440.2592751949178 617.0627165816054 439.18029782187983 617.2971052910306 438.55121578196406 617.5314940004557 437.9221337420483 619.3306292152372 430.227690736918 621.1297644300188 422.5332477317878 623.0197187509544 413.9534761014996 624.9096730718901 405.37370447121134 626.5542510431146 393.8531451032968 628.1988290143393 382.3325857353823 629.9732002793246 374.8813673459997 631.7475715443101 367.4301489566172 634.8713889235851 357.00777127433594 637.9952063028602 346.5853935920547 638.0051879882812 346.58599853515625 Z" fill="hsl(352, 100%, 76%)"></path><path d="M 632.4288766134929 404.52697942864745 Q 632.4288766134929 404.52697942864745 645.8051642667508 395.5675387565705 659.1814519200086 386.6080980844936 671.4142298322781 380.27042559379595 683.6470077445475 373.93275310309826 693.6306109812987 368.5985706404458 703.6142142180498 363.2643881777934 711.2176661959613 358.6619949852143 718.8211181738727 354.0596017926352 724.1382560882073 351.2414754594058 729.4553940025418 348.4233491261765 729.4586457940862 348.4271472641086 729.4618975856307 348.4309454020407 729.4651493771752 348.4347435399728 729.4684011687197 348.43854167790494 725.010089341881 352.48197546901065 720.5517775150424 356.5254092601163 713.5218264387643 362.19467616101156 706.491875362486 367.86394306190687 697.1215069138276 374.63635368454345 687.7511384651692 381.4087643071801 675.5536512559788 388.4797108579253 663.3561640467883 395.55065740867053 647.8967491853978 400.04788024977717 632.4373343240071 404.5451030908838 632.43310546875 404.5360412597656 Z" fill="hsl(352, 100%, 76%)"></path></svg>