<svg xmlns="http://www.w3.org/2000/svg" version="1.1" xmlns:xlink="http://www.w3.org/1999/xlink" xmlns:svgjs="http://svgjs.dev/svgjs" viewBox="0 0 800 800"><defs><linearGradient x1="50%" y1="0%" x2="50%" y2="100%" id="ffflurry-grad" gradientTransform="rotate(270)"><stop stop-color="hsl(238, 100%, 0%)" stop-opacity="1" offset="0%"></stop><stop stop-color="hsl(184, 74%, 44%)" stop-opacity="1" offset="45%"></stop><stop stop-color="hsl(332, 87%, 70%)" stop-opacity="1" offset="100%"></stop></linearGradient></defs><rect width="100%" height="100%" fill="hsl(238, 100%, 0%)"></rect><g fill="url(#ffflurry-grad)"><rect width="215" height="5" x="273.5" y="653.5" rx="2.5" transform="rotate(45, 381, 656)" opacity="0.31"></rect><rect width="288" height="5" x="-126" y="191.5" rx="2.5" transform="rotate(45, 18, 194)" opacity="0.81"></rect><rect width="346" height="5" x="-76" y="619.5" rx="2.5" transform="rotate(45, 97, 622)" opacity="0.10"></rect><rect width="72" height="5" x="739" y="148.5" rx="2.5" transform="rotate(45, 775, 151)" opacity="0.68"></rect><rect width="210" height="5" x="377" y="604.5" rx="2.5" transform="rotate(45, 482, 607)" opacity="0.12"></rect><rect width="356" height="5" x="-64" y="767.5" rx="2.5" transform="rotate(45, 114, 770)" opacity="0.48"></rect><rect width="323" height="5" x="543.5" y="444.5" rx="2.5" transform="rotate(45, 705, 447)" opacity="0.46"></rect><rect width="49" height="5" x="755.5" y="392.5" rx="2.5" transform="rotate(45, 780, 395)" opacity="0.27"></rect><rect width="245" height="5" x="160.5" y="26.5" rx="2.5" transform="rotate(45, 283, 29)" opacity="0.08"></rect><rect width="125" height="5" x="14.5" y="365.5" rx="2.5" transform="rotate(45, 77, 368)" opacity="0.62"></rect><rect width="184" height="5" x="71" y="663.5" rx="2.5" transform="rotate(45, 163, 666)" opacity="0.97"></rect><rect width="355" height="5" x="585.5" y="584.5" rx="2.5" transform="rotate(45, 763, 587)" opacity="0.69"></rect><rect width="66" height="5" x="-6" y="638.5" rx="2.5" transform="rotate(45, 27, 641)" opacity="0.36"></rect><rect width="355" height="5" x="314.5" y="69.5" rx="2.5" transform="rotate(45, 492, 72)" opacity="0.21"></rect><rect width="221" height="5" x="-33.5" y="678.5" rx="2.5" transform="rotate(45, 77, 681)" opacity="0.92"></rect><rect width="148" height="5" x="400" y="22.5" rx="2.5" transform="rotate(45, 474, 25)" opacity="0.75"></rect><rect width="80" height="5" x="319" y="587.5" rx="2.5" transform="rotate(45, 359, 590)" opacity="0.29"></rect><rect width="392" height="5" x="-85" y="306.5" rx="2.5" transform="rotate(45, 111, 309)" opacity="0.16"></rect><rect width="42" height="5" x="94" y="711.5" rx="2.5" transform="rotate(45, 115, 714)" opacity="0.71"></rect><rect width="61" height="5" x="504.5" y="288.5" rx="2.5" transform="rotate(45, 535, 291)" opacity="0.89"></rect><rect width="197" height="5" x="110.5" y="420.5" rx="2.5" transform="rotate(45, 209, 423)" opacity="0.34"></rect><rect width="442" height="5" x="310" y="131.5" rx="2.5" transform="rotate(45, 531, 134)" opacity="0.09"></rect><rect width="108" height="5" x="416" y="273.5" rx="2.5" transform="rotate(45, 470, 276)" opacity="0.30"></rect><rect width="189" height="5" x="676.5" y="473.5" rx="2.5" transform="rotate(45, 771, 476)" opacity="0.29"></rect><rect width="386" height="5" x="426" y="574.5" rx="2.5" transform="rotate(45, 619, 577)" opacity="0.38"></rect><rect width="256" height="5" x="28" y="425.5" rx="2.5" transform="rotate(45, 156, 428)" opacity="0.84"></rect><rect width="210" height="5" x="382" y="706.5" rx="2.5" transform="rotate(45, 487, 709)" opacity="0.86"></rect><rect width="296" height="5" x="305" y="658.5" rx="2.5" transform="rotate(45, 453, 661)" opacity="0.95"></rect><rect width="333" height="5" x="23.5" y="124.5" rx="2.5" transform="rotate(45, 190, 127)" opacity="0.67"></rect><rect width="83" height="5" x="-17.5" y="558.5" rx="2.5" transform="rotate(45, 24, 561)" opacity="0.97"></rect><rect width="160" height="5" x="189" y="318.5" rx="2.5" transform="rotate(45, 269, 321)" opacity="0.30"></rect><rect width="21" height="5" x="46.5" y="15.5" rx="2.5" transform="rotate(45, 57, 18)" opacity="0.56"></rect><rect width="302" height="5" x="92" y="76.5" rx="2.5" transform="rotate(45, 243, 79)" opacity="0.30"></rect><rect width="151" height="5" x="644.5" y="309.5" rx="2.5" transform="rotate(45, 720, 312)" opacity="0.75"></rect><rect width="400" height="5" x="490" y="103.5" rx="2.5" transform="rotate(45, 690, 106)" opacity="0.32"></rect><rect width="142" height="5" x="373" y="538.5" rx="2.5" transform="rotate(45, 444, 541)" opacity="0.66"></rect><rect width="124" height="5" x="592" y="651.5" rx="2.5" transform="rotate(45, 654, 654)" opacity="0.77"></rect><rect width="472" height="5" x="400" y="163.5" rx="2.5" transform="rotate(45, 636, 166)" opacity="0.33"></rect><rect width="79" height="5" x="190.5" y="277.5" rx="2.5" transform="rotate(45, 230, 280)" opacity="0.59"></rect><rect width="263" height="5" x="643.5" y="203.5" rx="2.5" transform="rotate(45, 775, 206)" opacity="0.68"></rect><rect width="223" height="5" x="44.5" y="170.5" rx="2.5" transform="rotate(45, 156, 173)" opacity="0.89"></rect><rect width="116" height="5" x="567" y="499.5" rx="2.5" transform="rotate(45, 625, 502)" opacity="0.27"></rect><rect width="140" height="5" x="262" y="209.5" rx="2.5" transform="rotate(45, 332, 212)" opacity="0.45"></rect><rect width="273" height="5" x="273.5" y="565.5" rx="2.5" transform="rotate(45, 410, 568)" opacity="0.97"></rect><rect width="96" height="5" x="366" y="222.5" rx="2.5" transform="rotate(45, 414, 225)" opacity="0.21"></rect><rect width="452" height="5" x="321" y="522.5" rx="2.5" transform="rotate(45, 547, 525)" opacity="0.93"></rect><rect width="322" height="5" x="515" y="21.5" rx="2.5" transform="rotate(45, 676, 24)" opacity="0.42"></rect><rect width="208" height="5" x="499" y="436.5" rx="2.5" transform="rotate(45, 603, 439)" opacity="0.78"></rect><rect width="449" height="5" x="481.5" y="534.5" rx="2.5" transform="rotate(45, 706, 537)" opacity="0.25"></rect><rect width="369" height="5" x="373.5" y="643.5" rx="2.5" transform="rotate(45, 558, 646)" opacity="0.88"></rect><rect width="254" height="5" x="320" y="766.5" rx="2.5" transform="rotate(45, 447, 769)" opacity="0.45"></rect><rect width="374" height="5" x="-1" y="251.5" rx="2.5" transform="rotate(45, 186, 254)" opacity="0.66"></rect><rect width="93" height="5" x="131.5" y="316.5" rx="2.5" transform="rotate(45, 178, 319)" opacity="0.39"></rect><rect width="284" height="5" x="175" y="491.5" rx="2.5" transform="rotate(45, 317, 494)" opacity="0.23"></rect><rect width="163" height="5" x="-22.5" y="757.5" rx="2.5" transform="rotate(45, 59, 760)" opacity="0.98"></rect><rect width="278" height="5" x="147" y="402.5" rx="2.5" transform="rotate(45, 286, 405)" opacity="0.10"></rect><rect width="222" height="5" x="206" y="124.5" rx="2.5" transform="rotate(45, 317, 127)" opacity="0.73"></rect><rect width="74" height="5" x="652" y="755.5" rx="2.5" transform="rotate(45, 689, 758)" opacity="0.63"></rect><rect width="378" height="5" x="-21" y="484.5" rx="2.5" transform="rotate(45, 168, 487)" opacity="0.85"></rect><rect width="419" height="5" x="91.5" y="675.5" rx="2.5" transform="rotate(45, 301, 678)" opacity="0.95"></rect><rect width="409" height="5" x="392.5" y="108.5" rx="2.5" transform="rotate(45, 597, 111)" opacity="0.92"></rect><rect width="17" height="5" x="49.5" y="729.5" rx="2.5" transform="rotate(45, 58, 732)" opacity="0.74"></rect><rect width="348" height="5" x="-114" y="127.5" rx="2.5" transform="rotate(45, 60, 130)" opacity="0.58"></rect><rect width="279" height="5" x="114.5" y="479.5" rx="2.5" transform="rotate(45, 254, 482)" opacity="0.82"></rect><rect width="321" height="5" x="125.5" y="254.5" rx="2.5" transform="rotate(45, 286, 257)" opacity="0.51"></rect><rect width="77" height="5" x="319.5" y="63.5" rx="2.5" transform="rotate(45, 358, 66)" opacity="0.48"></rect><rect width="469" height="5" x="169.5" y="30.5" rx="2.5" transform="rotate(45, 404, 33)" opacity="0.96"></rect><rect width="87" height="5" x="735.5" y="250.5" rx="2.5" transform="rotate(45, 779, 253)" opacity="0.51"></rect><rect width="48" height="5" x="1" y="66.5" rx="2.5" transform="rotate(45, 25, 69)" opacity="0.98"></rect><rect width="508" height="5" x="137" y="146.5" rx="2.5" transform="rotate(45, 391, 149)" opacity="0.63"></rect><rect width="167" height="5" x="668.5" y="30.5" rx="2.5" transform="rotate(45, 752, 33)" opacity="0.69"></rect><rect width="59" height="5" x="394.5" y="439.5" rx="2.5" transform="rotate(45, 424, 442)" opacity="0.64"></rect><rect width="210" height="5" x="286" y="307.5" rx="2.5" transform="rotate(45, 391, 310)" opacity="0.28"></rect><rect width="157" height="5" x="181.5" y="740.5" rx="2.5" transform="rotate(45, 260, 743)" opacity="0.21"></rect><rect width="197" height="5" x="57.5" y="357.5" rx="2.5" transform="rotate(45, 156, 360)" opacity="0.59"></rect><rect width="148" height="5" x="91" y="37.5" rx="2.5" transform="rotate(45, 165, 40)" opacity="0.54"></rect><rect width="234" height="5" x="562" y="233.5" rx="2.5" transform="rotate(45, 679, 236)" opacity="0.59"></rect><rect width="39" height="5" x="728.5" y="362.5" rx="2.5" transform="rotate(45, 748, 365)" opacity="0.91"></rect><rect width="133" height="5" x="-36.5" y="695.5" rx="2.5" transform="rotate(45, 30, 698)" opacity="0.16"></rect><rect width="495" height="5" x="257.5" y="440.5" rx="2.5" transform="rotate(45, 505, 443)" opacity="0.73"></rect><rect width="141" height="5" x="186.5" y="149.5" rx="2.5" transform="rotate(45, 257, 152)" opacity="0.92"></rect><rect width="229" height="5" x="442.5" y="374.5" rx="2.5" transform="rotate(45, 557, 377)" opacity="0.25"></rect><rect width="273" height="5" x="-10.5" y="389.5" rx="2.5" transform="rotate(45, 126, 392)" opacity="0.65"></rect><rect width="142" height="5" x="704" y="297.5" rx="2.5" transform="rotate(45, 775, 300)" opacity="0.67"></rect><rect width="70" height="5" x="351" y="503.5" rx="2.5" transform="rotate(45, 386, 506)" opacity="0.21"></rect><rect width="451" height="5" x="-96.5" y="236.5" rx="2.5" transform="rotate(45, 129, 239)" opacity="0.38"></rect><rect width="199" height="5" x="-38.5" y="227.5" rx="2.5" transform="rotate(45, 61, 230)" opacity="0.11"></rect><rect width="97" height="5" x="-22.5" y="326.5" rx="2.5" transform="rotate(45, 26, 329)" opacity="0.21"></rect><rect width="175" height="5" x="320.5" y="607.5" rx="2.5" transform="rotate(45, 408, 610)" opacity="0.39"></rect><rect width="114" height="5" x="-19" y="782.5" rx="2.5" transform="rotate(45, 38, 785)" opacity="0.81"></rect><rect width="477" height="5" x="-11.5" y="619.5" rx="2.5" transform="rotate(45, 227, 622)" opacity="0.30"></rect><rect width="29" height="5" x="311.5" y="307.5" rx="2.5" transform="rotate(45, 326, 310)" opacity="0.88"></rect><rect width="153" height="5" x="222.5" y="556.5" rx="2.5" transform="rotate(45, 299, 559)" opacity="0.83"></rect><rect width="300" height="5" x="-52" y="75.5" rx="2.5" transform="rotate(45, 98, 78)" opacity="0.44"></rect><rect width="513" height="5" x="199.5" y="131.5" rx="2.5" transform="rotate(45, 456, 134)" opacity="0.52"></rect><rect width="467" height="5" x="122.5" y="395.5" rx="2.5" transform="rotate(45, 356, 398)" opacity="0.80"></rect><rect width="329" height="5" x="-90.5" y="556.5" rx="2.5" transform="rotate(45, 74, 559)" opacity="0.96"></rect><rect width="385" height="5" x="401.5" y="314.5" rx="2.5" transform="rotate(45, 594, 317)" opacity="0.65"></rect><rect width="66" height="5" x="277" y="616.5" rx="2.5" transform="rotate(45, 310, 619)" opacity="0.59"></rect><rect width="50" height="5" x="101" y="549.5" rx="2.5" transform="rotate(45, 126, 552)" opacity="0.42"></rect><rect width="452" height="5" x="492" y="167.5" rx="2.5" transform="rotate(45, 718, 170)" opacity="0.31"></rect><rect width="241" height="5" x="-65.5" y="273.5" rx="2.5" transform="rotate(45, 55, 276)" opacity="0.20"></rect><rect width="116" height="5" x="137" y="549.5" rx="2.5" transform="rotate(45, 195, 552)" opacity="0.98"></rect><rect width="229" height="5" x="-10.5" y="448.5" rx="2.5" transform="rotate(45, 104, 451)" opacity="0.07"></rect><rect width="157" height="5" x="105.5" y="753.5" rx="2.5" transform="rotate(45, 184, 756)" opacity="0.96"></rect><rect width="300" height="5" x="338" y="530.5" rx="2.5" transform="rotate(45, 488, 533)" opacity="0.27"></rect><rect width="332" height="5" x="588" y="689.5" rx="2.5" transform="rotate(45, 754, 692)" opacity="0.45"></rect><rect width="294" height="5" x="309" y="360.5" rx="2.5" transform="rotate(45, 456, 363)" opacity="0.96"></rect><rect width="72" height="5" x="46" y="176.5" rx="2.5" transform="rotate(45, 82, 179)" opacity="0.18"></rect><rect width="327" height="5" x="395.5" y="751.5" rx="2.5" transform="rotate(45, 559, 754)" opacity="0.55"></rect><rect width="85" height="5" x="567.5" y="233.5" rx="2.5" transform="rotate(45, 610, 236)" opacity="0.10"></rect><rect width="236" height="5" x="615" y="236.5" rx="2.5" transform="rotate(45, 733, 239)" opacity="0.39"></rect><rect width="345" height="5" x="391.5" y="34.5" rx="2.5" transform="rotate(45, 564, 37)" opacity="0.82"></rect><rect width="168" height="5" x="265" y="765.5" rx="2.5" transform="rotate(45, 349, 768)" opacity="0.79"></rect><rect width="239" height="5" x="-106.5" y="735.5" rx="2.5" transform="rotate(45, 13, 738)" opacity="0.22"></rect><rect width="324" height="5" x="83" y="205.5" rx="2.5" transform="rotate(45, 245, 208)" opacity="0.44"></rect><rect width="426" height="5" x="317" y="202.5" rx="2.5" transform="rotate(45, 530, 205)" opacity="0.89"></rect><rect width="37" height="5" x="14.5" y="416.5" rx="2.5" transform="rotate(45, 33, 419)" opacity="0.13"></rect><rect width="400" height="5" x="-152" y="487.5" rx="2.5" transform="rotate(45, 48, 490)" opacity="0.60"></rect><rect width="247" height="5" x="106.5" y="358.5" rx="2.5" transform="rotate(45, 230, 361)" opacity="0.62"></rect><rect width="131" height="5" x="321.5" y="711.5" rx="2.5" transform="rotate(45, 387, 714)" opacity="0.61"></rect><rect width="235" height="5" x="517.5" y="51.5" rx="2.5" transform="rotate(45, 635, 54)" opacity="0.42"></rect><rect width="326" height="5" x="492" y="310.5" rx="2.5" transform="rotate(45, 655, 313)" opacity="0.30"></rect><rect width="383" height="5" x="571.5" y="91.5" rx="2.5" transform="rotate(45, 763, 94)" opacity="0.86"></rect><rect width="201" height="5" x="566.5" y="382.5" rx="2.5" transform="rotate(45, 667, 385)" opacity="0.76"></rect></g></svg>